<svg width="512" height="512" viewBox="0 0 512 512" xmlns="http://www.w3.org/2000/svg">
  <!-- Kubernetes Blue Cloud -->
  <path fill="#326CE5" d="M394.7,298.7c-2.7-0.7-5.3-1.1-8-1.1c-4.9,0-9.6,1.4-13.6,3.9c-11.4-23.7-35.6-40.2-63.7-40.2
	c-4.4,0-8.8,0.4-13.1,1.2c-12.7-32.6-44.4-55.9-81.6-55.9c-48.6,0-88,39.4-88,88c0,4.4,0.3,8.7,1,12.9
	c-28.7,5.5-50.3,30.6-50.3,60.8c0,34.2,27.8,62,62,62h248c29.8,0,54-24.2,54-54S424.5,302.2,394.7,298.7z"/>
  
  <!-- White Wheel/Helm -->
  <g transform="translate(256, 320) scale(1.5)" fill="#FFFFFF">
    <path d="M32.8-5.3L23.4-8.4c-0.8-2.6-2-5-3.6-7.2l5.6-8.2c0.6-0.9,0.5-2.1-0.2-2.9l-6.8-6.8c-0.7-0.7-1.9-0.8-2.8-0.3
		l-8.2,5.6c-2.2-1.6-4.6-2.8-7.2-3.6l-3.1-9.4c-0.3-1-1.3-1.7-2.4-1.7H-4.7c-1.1,0-2.1,0.7-2.4,1.7l-3.1,9.4
		c-2.6,0.8-5,2-7.2,3.6l-8.2-5.6c-0.9-0.6-2.1-0.4-2.8,0.3l-6.8,6.8c-0.7,0.7-0.9,1.9-0.2,2.9l5.6,8.2c-1.6,2.2-2.8,4.6-3.6,7.2
		l-9.4,3.1c-1,0.3-1.7,1.3-1.7,2.4v9.6c0,1.1,0.7,2.1,1.7,2.4l9.4,3.1c0.8,2.6,2,5,3.6,7.2l-5.6,8.2c-0.6,0.9-0.5,2.1,0.2,2.9
		l6.8,6.8c0.7,0.7,1.9,0.8,2.8,0.3l8.2-5.6c2.2,1.6,4.6,2.8,7.2,3.6l3.1,9.4c0.3,1,1.3,1.7,2.4,1.7h9.6c1.1,0,2.1-0.7,2.4-1.7
		l3.1-9.4c2.6-0.8,5-2,7.2-3.6l8.2,5.6c0.9,0.6,2.1,0.4,2.8-0.3l6.8-6.8c0.7-0.7,0.9-1.9,0.2-2.9l-5.6-8.2c1.6-2.2,2.8-4.6,3.6-7.2
		l9.4-3.1c1-0.3,1.7-1.3,1.7-2.4v-9.6C34.5-4,33.8-5,32.8-5.3z M0,14c-7.7,0-14-6.3-14-14s6.3-14,14-14s14,6.3,14,14S7.7,14,0,14z"/>
  </g>
</svg>
